<svg id="svg" version="1.1" xmlns="http://www.w3.org/2000/svg" xmlns:xlink="http://www.w3.org/1999/xlink" width="400" height="400" viewBox="0, 0, 400,400"><g id="svgg"><path id="path0" d="M123.600 203.603 L 123.600 288.406 150.500 288.303 L 177.400 288.200 177.501 203.500 L 177.602 118.800 150.601 118.800 L 123.600 118.800 123.600 203.603 M225.332 120.700 C 224.726 121.745,224.088 122.660,223.915 122.733 C 223.742 122.807,223.600 123.034,223.600 123.239 C 223.600 123.445,222.993 124.555,222.252 125.706 C 221.510 126.858,219.149 130.680,217.004 134.200 C 214.860 137.720,212.316 141.813,211.353 143.295 C 210.389 144.778,209.600 146.092,209.600 146.217 C 209.600 146.342,208.880 147.504,208.000 148.800 C 207.120 150.096,206.400 151.250,206.400 151.366 C 206.400 151.481,205.546 152.886,204.503 154.488 C 203.459 156.089,202.403 157.760,202.156 158.200 C 201.189 159.921,196.341 167.760,195.592 168.811 C 195.156 169.423,194.800 170.041,194.800 170.184 C 194.800 170.327,194.080 171.504,193.200 172.800 C 192.320 174.096,191.600 175.346,191.600 175.578 C 191.600 175.810,191.420 176.000,191.200 176.000 C 190.980 176.000,190.800 176.193,190.800 176.428 C 190.800 176.663,190.260 177.641,189.600 178.600 C 188.940 179.559,188.400 180.537,188.400 180.772 C 188.400 181.007,188.220 181.200,188.000 181.200 C 187.780 181.200,187.600 181.366,187.600 181.568 C 187.600 181.943,184.894 186.427,181.741 191.279 C 179.380 194.911,179.116 193.675,185.040 206.712 C 185.568 207.873,186.000 208.903,186.000 209.000 C 186.000 209.097,186.430 210.127,186.955 211.288 C 187.481 212.450,188.308 214.300,188.793 215.400 C 189.278 216.500,190.127 218.390,190.680 219.600 C 191.232 220.810,191.826 222.160,192.000 222.600 C 192.174 223.040,192.768 224.390,193.320 225.600 C 193.873 226.810,194.722 228.700,195.207 229.800 C 195.692 230.900,196.519 232.750,197.045 233.912 C 197.570 235.073,198.000 236.096,198.000 236.184 C 198.000 236.272,198.521 237.482,199.157 238.872 C 200.619 242.065,201.572 244.221,203.192 248.000 C 203.900 249.650,204.930 251.990,205.482 253.200 C 206.859 256.218,207.807 258.343,208.516 260.000 C 209.305 261.842,211.654 267.144,213.390 271.000 C 213.885 272.100,214.876 274.350,215.592 276.000 C 216.308 277.650,217.253 279.810,217.692 280.800 C 218.131 281.790,218.922 283.590,219.450 284.800 C 219.979 286.010,220.563 287.270,220.749 287.600 C 221.117 288.253,281.601 288.753,281.599 288.103 C 281.598 287.788,277.256 279.141,273.615 272.200 C 269.672 264.684,265.689 257.003,262.103 250.000 C 260.131 246.150,257.251 240.570,255.701 237.600 C 254.152 234.630,251.312 229.140,249.390 225.400 C 243.781 214.486,240.734 208.594,237.464 202.341 C 235.779 199.119,234.400 196.205,234.400 195.865 C 234.400 195.268,237.716 189.563,240.059 186.128 C 240.687 185.208,241.200 184.346,241.200 184.213 C 241.200 184.079,242.280 182.363,243.600 180.400 C 244.920 178.437,246.000 176.726,246.000 176.597 C 246.000 176.469,246.872 175.067,247.938 173.482 C 249.004 171.897,249.949 170.410,250.038 170.178 C 250.127 169.945,251.550 167.646,253.200 165.068 C 254.850 162.490,256.380 160.075,256.600 159.702 C 256.820 159.328,257.855 157.721,258.900 156.129 C 259.945 154.538,260.800 153.144,260.800 153.030 C 260.800 152.917,261.655 151.494,262.700 149.867 C 263.745 148.240,265.680 145.167,267.000 143.038 C 268.320 140.909,270.615 137.275,272.100 134.961 C 273.585 132.648,274.800 130.667,274.800 130.559 C 274.800 130.452,275.700 129.030,276.800 127.400 C 277.900 125.770,278.800 124.328,278.800 124.196 C 278.800 124.064,279.520 122.896,280.400 121.600 C 281.280 120.304,282.000 119.144,282.000 119.022 C 282.000 118.900,269.498 118.800,254.217 118.800 L 226.434 118.800 225.332 120.700 " stroke="none" fill="#fbfbfb" fill-rule="evenodd"></path><path id="path1" d="M185.200 15.425 C 181.790 15.712,177.650 16.130,176.000 16.352 C 169.066 17.287,169.707 17.182,163.200 18.454 C 160.206 19.039,149.774 21.569,147.800 22.188 C 146.920 22.464,144.580 23.194,142.600 23.809 C 111.531 33.463,79.096 55.224,58.250 80.400 C 56.519 82.490,54.717 84.650,54.244 85.200 C 53.772 85.750,52.947 86.830,52.412 87.600 C 51.877 88.370,51.331 89.090,51.201 89.200 C 50.403 89.871,42.606 101.398,40.834 104.528 C 39.604 106.700,38.640 108.381,37.468 110.400 C 29.720 123.751,21.808 144.945,18.428 161.400 C 18.157 162.720,17.783 164.520,17.598 165.400 C 17.412 166.280,17.060 168.350,16.816 170.000 C 16.572 171.650,16.206 174.080,16.003 175.400 C 14.528 184.979,14.054 207.697,15.135 217.000 C 16.253 226.625,17.316 233.283,18.807 240.000 C 18.978 240.770,19.245 242.030,19.401 242.800 C 20.331 247.400,24.445 260.651,26.791 266.602 C 28.586 271.157,32.771 280.642,34.026 283.000 C 37.460 289.452,38.292 290.954,40.338 294.400 C 43.873 300.352,52.786 313.285,54.398 314.800 C 54.515 314.910,55.411 315.990,56.388 317.200 C 63.462 325.956,73.994 336.386,83.803 344.348 C 94.432 352.975,110.725 363.026,122.400 368.160 C 123.830 368.789,125.799 369.660,126.776 370.096 C 135.666 374.066,153.965 379.784,162.400 381.227 C 163.610 381.434,165.500 381.774,166.600 381.983 C 180.303 384.583,197.107 385.685,209.379 384.790 C 220.308 383.993,226.045 383.273,235.200 381.549 C 239.220 380.792,246.942 379.013,248.800 378.415 C 249.350 378.238,250.520 377.894,251.400 377.651 C 256.557 376.227,266.998 372.623,270.479 371.067 C 271.205 370.742,272.610 370.144,273.600 369.738 C 318.779 351.217,358.752 308.035,375.001 260.200 C 377.290 253.462,379.543 245.336,380.769 239.400 C 381.042 238.080,381.418 236.280,381.606 235.400 C 382.818 229.708,383.802 222.205,384.786 211.155 C 386.090 196.511,384.347 175.939,380.299 158.200 C 367.499 102.120,326.057 52.167,274.200 30.314 C 266.892 27.234,259.294 24.461,253.600 22.795 C 251.950 22.312,250.150 21.773,249.600 21.597 C 249.050 21.421,247.700 21.068,246.600 20.813 C 244.567 20.342,243.071 19.981,240.200 19.269 C 225.163 15.542,202.550 13.962,185.200 15.425 M210.582 50.418 C 217.503 51.073,225.538 52.140,228.600 52.811 C 229.480 53.003,231.190 53.371,232.400 53.627 C 239.469 55.125,252.394 59.197,258.000 61.693 C 266.057 65.278,270.994 67.810,277.200 71.534 C 279.818 73.106,286.661 77.581,287.800 78.466 C 301.322 88.978,312.174 99.582,319.065 109.016 C 319.541 109.667,320.540 111.010,321.286 112.000 C 326.433 118.835,334.727 133.281,337.360 140.000 C 337.748 140.990,338.301 142.340,338.590 143.000 C 353.356 176.828,353.185 223.580,338.169 257.900 C 337.856 258.615,337.311 259.875,336.958 260.700 C 328.038 281.541,310.765 303.607,291.999 318.135 C 282.476 325.507,268.318 333.864,258.800 337.731 C 257.810 338.133,256.640 338.612,256.200 338.794 C 250.029 341.356,239.907 344.570,234.000 345.843 C 226.838 347.386,226.121 347.511,216.600 348.882 C 198.665 351.464,169.227 348.167,150.172 341.443 C 143.953 339.249,139.604 337.393,133.000 334.115 C 105.046 320.241,82.871 298.810,67.523 270.838 C 66.025 268.108,64.800 265.808,64.800 265.726 C 64.800 265.644,64.185 264.277,63.433 262.689 C 57.698 250.566,52.946 234.447,51.201 221.200 C 50.955 219.330,50.584 216.595,50.377 215.123 C 49.888 211.647,49.888 188.353,50.377 184.877 C 50.584 183.405,50.959 180.670,51.211 178.800 C 51.653 175.506,52.548 170.471,53.201 167.600 C 53.376 166.830,53.711 165.300,53.945 164.200 C 54.178 163.100,54.751 160.940,55.218 159.400 C 55.684 157.860,56.209 156.060,56.384 155.400 C 59.965 141.890,75.436 112.743,82.392 106.400 C 82.512 106.290,83.416 105.210,84.399 104.000 C 104.567 79.190,138.572 58.728,168.800 53.212 C 185.171 50.226,198.869 49.310,210.582 50.418 " stroke="none" fill="#fb4373" fill-rule="evenodd"></path><path id="path2" d="M192.000 0.800 C 192.000 1.049,189.733 1.200,186.000 1.200 C 182.267 1.200,180.000 1.351,180.000 1.600 C 180.000 1.835,178.600 2.000,176.600 2.000 C 174.600 2.000,173.200 2.165,173.200 2.400 C 173.200 2.629,172.000 2.800,170.400 2.800 C 168.800 2.800,167.600 2.971,167.600 3.200 C 167.600 3.422,166.533 3.600,165.200 3.600 C 163.867 3.600,162.800 3.778,162.800 4.000 C 162.800 4.220,161.990 4.400,161.000 4.400 C 160.010 4.400,159.200 4.580,159.200 4.800 C 159.200 5.020,158.300 5.200,157.200 5.200 C 156.100 5.200,155.200 5.380,155.200 5.600 C 155.200 5.820,154.480 6.000,153.600 6.000 C 152.720 6.000,152.000 6.180,152.000 6.400 C 152.000 6.620,151.280 6.800,150.400 6.800 C 149.520 6.800,148.800 6.980,148.800 7.200 C 148.800 7.420,148.080 7.600,147.200 7.600 C 146.320 7.600,145.600 7.780,145.600 8.000 C 145.600 8.220,145.194 8.400,144.699 8.400 C 144.203 8.400,142.596 8.743,141.129 9.163 C 139.661 9.583,138.356 9.823,138.230 9.697 C 138.103 9.570,138.000 9.677,138.000 9.933 C 138.000 10.190,137.460 10.400,136.800 10.400 C 136.140 10.400,135.600 10.580,135.600 10.800 C 135.600 11.020,135.060 11.200,134.400 11.200 C 133.740 11.200,133.200 11.347,133.200 11.528 C 133.200 11.708,132.300 12.100,131.200 12.400 C 130.100 12.700,129.200 13.092,129.200 13.272 C 129.200 13.453,128.750 13.600,128.200 13.600 C 127.650 13.600,127.200 13.780,127.200 14.000 C 127.200 14.220,126.660 14.400,126.000 14.400 C 125.340 14.400,124.800 14.580,124.800 14.800 C 124.800 15.020,124.440 15.200,124.000 15.200 C 123.560 15.200,123.200 15.380,123.200 15.600 C 123.200 15.820,122.840 16.000,122.400 16.000 C 121.960 16.000,121.600 16.180,121.600 16.400 C 121.600 16.620,121.060 16.800,120.400 16.800 C 119.740 16.800,119.200 16.980,119.200 17.200 C 119.200 17.420,118.840 17.600,118.400 17.600 C 117.960 17.600,117.600 17.780,117.600 18.000 C 117.600 18.220,117.240 18.400,116.800 18.400 C 116.360 18.400,116.000 18.580,116.000 18.800 C 116.000 19.020,115.640 19.200,115.200 19.200 C 114.760 19.200,114.400 19.380,114.400 19.600 C 114.400 19.820,114.040 20.000,113.600 20.000 C 113.160 20.000,112.800 20.180,112.800 20.400 C 112.800 20.620,112.440 20.800,112.000 20.800 C 111.560 20.800,111.200 20.980,111.200 21.200 C 111.200 21.420,110.840 21.600,110.400 21.600 C 109.960 21.600,109.600 21.780,109.600 22.000 C 109.600 22.220,109.330 22.400,109.000 22.400 C 108.670 22.400,108.400 22.580,108.400 22.800 C 108.400 23.020,108.040 23.200,107.600 23.200 C 107.160 23.200,106.800 23.380,106.800 23.600 C 106.800 23.820,106.440 24.000,106.000 24.000 C 105.560 24.000,105.200 24.180,105.200 24.400 C 105.200 24.620,104.885 24.815,104.500 24.833 C 104.115 24.850,102.900 25.370,101.800 25.987 C 100.700 26.604,98.855 27.617,97.700 28.238 C 96.545 28.859,95.600 29.510,95.600 29.684 C 95.600 29.858,95.240 30.000,94.800 30.000 C 94.360 30.000,94.000 30.180,94.000 30.400 C 94.000 30.620,93.770 30.800,93.488 30.800 C 93.207 30.800,92.717 31.160,92.400 31.600 C 92.083 32.040,91.543 32.400,91.200 32.400 C 90.857 32.400,90.317 32.760,90.000 33.200 C 89.683 33.640,89.143 34.000,88.800 34.000 C 88.457 34.000,87.917 34.360,87.600 34.800 C 87.283 35.240,86.743 35.600,86.400 35.600 C 86.057 35.600,85.517 35.960,85.200 36.400 C 84.883 36.840,84.375 37.200,84.072 37.200 C 83.769 37.200,83.017 37.740,82.400 38.400 C 81.783 39.060,81.108 39.600,80.899 39.600 C 80.690 39.600,79.954 40.140,79.263 40.800 C 78.572 41.460,77.826 42.000,77.604 42.000 C 77.382 42.000,77.200 42.210,77.200 42.467 C 77.200 42.723,77.082 42.816,76.938 42.672 C 76.795 42.528,76.163 42.948,75.535 43.605 C 74.907 44.262,74.203 44.800,73.971 44.800 C 73.738 44.800,72.671 45.700,71.600 46.800 C 70.529 47.900,69.465 48.800,69.237 48.800 C 68.700 48.800,48.000 69.494,48.000 70.031 C 48.000 70.255,47.145 71.307,46.100 72.368 C 45.055 73.430,44.152 74.510,44.093 74.769 C 44.035 75.028,43.360 75.867,42.593 76.633 C 41.827 77.400,41.200 78.202,41.200 78.417 C 41.200 78.632,40.660 79.372,40.000 80.063 C 39.340 80.754,38.800 81.522,38.800 81.771 C 38.800 82.020,38.440 82.483,38.000 82.800 C 37.560 83.117,37.200 83.625,37.200 83.928 C 37.200 84.231,36.660 84.983,36.000 85.600 C 35.340 86.217,34.800 86.969,34.800 87.272 C 34.800 87.575,34.440 88.083,34.000 88.400 C 33.560 88.717,33.200 89.257,33.200 89.600 C 33.200 89.943,32.840 90.483,32.400 90.800 C 31.960 91.117,31.600 91.697,31.600 92.088 C 31.600 92.480,31.420 92.800,31.200 92.800 C 30.980 92.800,30.800 93.055,30.800 93.367 C 30.800 93.678,30.639 93.993,30.442 94.067 C 30.078 94.202,29.110 95.723,27.557 98.600 C 27.081 99.480,26.564 100.290,26.408 100.400 C 26.251 100.510,26.002 101.095,25.854 101.700 C 25.706 102.305,25.408 102.800,25.192 102.800 C 24.977 102.800,24.800 103.160,24.800 103.600 C 24.800 104.040,24.620 104.400,24.400 104.400 C 24.180 104.400,24.000 104.760,24.000 105.200 C 24.000 105.640,23.820 106.000,23.600 106.000 C 23.380 106.000,23.200 106.360,23.200 106.800 C 23.200 107.240,23.020 107.600,22.800 107.600 C 22.580 107.600,22.400 107.971,22.400 108.424 C 22.400 108.877,22.220 109.136,22.000 109.000 C 21.780 108.864,21.600 109.123,21.600 109.576 C 21.600 110.029,21.420 110.400,21.200 110.400 C 20.980 110.400,20.800 110.760,20.800 111.200 C 20.800 111.640,20.620 112.000,20.400 112.000 C 20.180 112.000,20.000 112.360,20.000 112.800 C 20.000 113.240,19.820 113.600,19.600 113.600 C 19.380 113.600,19.200 113.960,19.200 114.400 C 19.200 114.840,19.020 115.200,18.800 115.200 C 18.580 115.200,18.400 115.560,18.400 116.000 C 18.400 116.440,18.220 116.800,18.000 116.800 C 17.780 116.800,17.600 117.160,17.600 117.600 C 17.600 118.040,17.420 118.400,17.200 118.400 C 16.980 118.400,16.800 118.940,16.800 119.600 C 16.800 120.260,16.620 120.800,16.400 120.800 C 16.180 120.800,16.000 121.160,16.000 121.600 C 16.000 122.040,15.820 122.400,15.600 122.400 C 15.380 122.400,15.200 122.940,15.200 123.600 C 15.200 124.260,15.065 124.801,14.900 124.803 C 14.561 124.807,13.600 126.726,13.600 127.400 C 13.600 128.074,12.639 129.993,12.300 129.997 C 12.135 129.999,12.000 130.529,12.000 131.176 C 12.000 131.823,11.820 132.464,11.600 132.600 C 11.380 132.736,11.200 133.276,11.200 133.800 C 11.200 134.324,11.020 134.864,10.800 135.000 C 10.580 135.136,10.400 135.687,10.400 136.224 C 10.400 136.761,10.220 137.200,10.000 137.200 C 9.780 137.200,9.597 137.605,9.594 138.100 C 9.591 138.595,9.329 139.720,9.012 140.600 C 8.695 141.480,8.427 142.785,8.418 143.500 C 8.408 144.215,8.220 144.800,8.000 144.800 C 7.780 144.800,7.600 145.340,7.600 146.000 C 7.600 146.660,7.420 147.200,7.200 147.200 C 6.980 147.200,6.800 147.920,6.800 148.800 C 6.800 149.680,6.620 150.400,6.400 150.400 C 6.180 150.400,6.000 151.120,6.000 152.000 C 6.000 152.880,5.820 153.600,5.600 153.600 C 5.380 153.600,5.200 154.500,5.200 155.600 C 5.200 156.700,5.020 157.600,4.800 157.600 C 4.580 157.600,4.400 158.320,4.400 159.200 C 4.400 160.080,4.220 160.800,4.000 160.800 C 3.780 160.800,3.600 161.790,3.600 163.000 C 3.600 164.210,3.420 165.200,3.200 165.200 C 2.978 165.200,2.800 166.267,2.800 167.600 C 2.800 168.933,2.622 170.000,2.400 170.000 C 2.169 170.000,2.000 171.267,2.000 173.000 C 2.000 174.733,1.831 176.000,1.600 176.000 C 1.360 176.000,1.200 177.600,1.200 180.000 C 1.200 182.400,1.040 184.000,0.800 184.000 C 0.540 184.000,0.400 189.600,0.400 200.000 C 0.400 210.400,0.540 216.000,0.800 216.000 C 1.038 216.000,1.200 217.525,1.200 219.776 C 1.200 221.863,1.379 223.663,1.600 223.800 C 1.820 223.936,2.000 225.387,2.000 227.024 C 2.000 228.741,2.169 230.000,2.400 230.000 C 2.622 230.000,2.800 231.067,2.800 232.400 C 2.800 233.733,2.978 234.800,3.200 234.800 C 3.420 234.800,3.600 235.700,3.600 236.800 C 3.600 237.900,3.780 238.800,4.000 238.800 C 4.220 238.800,4.400 239.610,4.400 240.600 C 4.400 241.590,4.580 242.400,4.800 242.400 C 5.020 242.400,5.200 243.300,5.200 244.400 C 5.200 245.500,5.380 246.400,5.600 246.400 C 5.820 246.400,6.000 247.120,6.000 248.000 C 6.000 248.880,6.180 249.600,6.400 249.600 C 6.620 249.600,6.800 250.320,6.800 251.200 C 6.800 252.080,6.980 252.800,7.200 252.800 C 7.420 252.800,7.600 253.340,7.600 254.000 C 7.600 254.660,7.757 255.200,7.948 255.200 C 8.139 255.200,8.400 255.965,8.528 256.900 C 8.835 259.146,8.966 259.709,9.313 260.264 C 9.472 260.520,9.642 261.195,9.689 261.764 C 9.736 262.334,9.915 262.800,10.087 262.800 C 10.259 262.800,10.400 263.340,10.400 264.000 C 10.400 264.660,10.547 265.200,10.728 265.200 C 10.908 265.200,11.300 266.100,11.600 267.200 C 11.900 268.300,12.292 269.200,12.472 269.200 C 12.653 269.200,12.800 269.740,12.800 270.400 C 12.800 271.060,12.980 271.600,13.200 271.600 C 13.420 271.600,13.600 272.050,13.600 272.600 C 13.600 273.150,13.780 273.600,14.000 273.600 C 14.220 273.600,14.400 273.960,14.400 274.400 C 14.400 274.840,14.580 275.200,14.800 275.200 C 15.020 275.200,15.200 275.740,15.200 276.400 C 15.200 277.060,15.380 277.600,15.600 277.600 C 15.820 277.600,16.000 277.960,16.000 278.400 C 16.000 278.840,16.180 279.200,16.400 279.200 C 16.620 279.200,16.800 279.560,16.800 280.000 C 16.800 280.440,16.980 280.800,17.200 280.800 C 17.420 280.800,17.600 281.160,17.600 281.600 C 17.600 282.040,17.780 282.400,18.000 282.400 C 18.220 282.400,18.400 282.940,18.400 283.600 C 18.400 284.260,18.535 284.801,18.700 284.803 C 19.059 284.807,20.000 286.744,20.000 287.480 C 20.000 287.766,20.180 288.000,20.400 288.000 C 20.620 288.000,20.800 288.360,20.800 288.800 C 20.800 289.240,20.980 289.600,21.200 289.600 C 21.420 289.600,21.600 289.870,21.600 290.200 C 21.600 290.530,21.780 290.800,22.000 290.800 C 22.220 290.800,22.400 291.160,22.400 291.600 C 22.400 292.040,22.580 292.400,22.800 292.400 C 23.020 292.400,23.200 292.720,23.200 293.112 C 23.200 293.503,23.560 294.083,24.000 294.400 C 24.440 294.717,24.800 295.267,24.800 295.622 C 24.800 295.976,24.935 296.402,25.100 296.567 C 25.265 296.732,25.412 296.987,25.426 297.133 C 25.494 297.836,27.737 302.000,28.047 302.000 C 28.241 302.000,28.400 302.360,28.400 302.800 C 28.400 303.240,28.580 303.600,28.800 303.600 C 29.020 303.600,29.200 303.836,29.200 304.125 C 29.200 304.413,29.560 305.036,30.000 305.508 C 30.440 305.980,30.800 306.554,30.800 306.783 C 30.800 307.012,30.980 307.200,31.200 307.200 C 31.420 307.200,31.600 307.470,31.600 307.800 C 31.600 308.130,31.780 308.400,32.000 308.400 C 32.220 308.400,32.400 308.630,32.400 308.912 C 32.400 309.193,32.760 309.683,33.200 310.000 C 33.640 310.317,34.000 310.857,34.000 311.200 C 34.000 311.543,34.360 312.083,34.800 312.400 C 35.240 312.717,35.600 313.225,35.600 313.528 C 35.600 313.831,36.140 314.583,36.800 315.200 C 37.460 315.817,38.000 316.569,38.000 316.872 C 38.000 317.175,38.360 317.683,38.800 318.000 C 39.240 318.317,39.600 318.807,39.600 319.088 C 39.600 319.369,40.320 320.341,41.200 321.248 C 42.080 322.155,42.800 323.122,42.800 323.397 C 42.800 323.673,43.430 324.436,44.200 325.094 C 44.970 325.752,45.600 326.476,45.600 326.704 C 45.600 326.932,46.500 328.038,47.600 329.161 C 48.700 330.285,49.600 331.379,49.600 331.592 C 49.600 332.119,67.107 349.600,67.634 349.600 C 67.864 349.600,68.929 350.500,70.000 351.600 C 71.071 352.700,72.154 353.600,72.405 353.600 C 72.657 353.600,73.554 354.320,74.400 355.200 C 75.246 356.080,76.086 356.802,76.269 356.803 C 76.451 356.805,77.263 357.435,78.073 358.203 C 78.884 358.972,79.789 359.600,80.085 359.600 C 80.381 359.600,80.883 359.960,81.200 360.400 C 81.517 360.840,82.025 361.200,82.328 361.200 C 82.631 361.200,83.383 361.740,84.000 362.400 C 84.617 363.060,85.369 363.600,85.672 363.600 C 85.975 363.600,86.483 363.960,86.800 364.400 C 87.117 364.840,87.657 365.200,88.000 365.200 C 88.343 365.200,88.883 365.560,89.200 366.000 C 89.517 366.440,90.057 366.800,90.400 366.800 C 90.743 366.800,91.283 367.160,91.600 367.600 C 91.917 368.040,92.407 368.400,92.688 368.400 C 92.970 368.400,93.200 368.558,93.200 368.751 C 93.200 368.945,93.740 369.327,94.400 369.600 C 95.060 369.873,95.600 370.255,95.600 370.449 C 95.600 370.642,95.960 370.800,96.400 370.800 C 96.840 370.800,97.200 370.952,97.200 371.137 C 97.200 371.323,98.055 371.908,99.100 372.437 C 100.145 372.967,101.060 373.535,101.133 373.700 C 101.207 373.865,101.461 374.000,101.699 374.000 C 102.420 374.000,105.200 375.332,105.200 375.677 C 105.200 375.855,105.560 376.000,106.000 376.000 C 106.440 376.000,106.800 376.180,106.800 376.400 C 106.800 376.620,107.160 376.800,107.600 376.800 C 108.040 376.800,108.400 376.980,108.400 377.200 C 108.400 377.420,108.771 377.600,109.224 377.600 C 109.677 377.600,109.936 377.780,109.800 378.000 C 109.664 378.220,109.798 378.400,110.097 378.400 C 110.851 378.400,112.793 379.335,112.797 379.700 C 112.799 379.865,113.160 380.000,113.600 380.000 C 114.040 380.000,114.400 380.180,114.400 380.400 C 114.400 380.620,114.940 380.800,115.600 380.800 C 116.260 380.800,116.800 380.980,116.800 381.200 C 116.800 381.420,117.160 381.600,117.600 381.600 C 118.040 381.600,118.400 381.780,118.400 382.000 C 118.400 382.220,118.760 382.400,119.200 382.400 C 119.640 382.400,120.000 382.580,120.000 382.800 C 120.000 383.020,120.360 383.200,120.800 383.200 C 121.240 383.200,121.600 383.380,121.600 383.600 C 121.600 383.820,122.140 384.000,122.800 384.000 C 123.460 384.000,124.000 384.180,124.000 384.400 C 124.000 384.620,124.360 384.800,124.800 384.800 C 125.240 384.800,125.600 384.980,125.600 385.200 C 125.600 385.420,126.050 385.600,126.600 385.600 C 127.150 385.600,127.600 385.747,127.600 385.928 C 127.600 386.108,128.500 386.500,129.600 386.800 C 130.700 387.100,131.600 387.492,131.600 387.672 C 131.600 387.853,132.140 388.000,132.800 388.000 C 133.460 388.000,134.000 388.180,134.000 388.400 C 134.000 388.620,134.540 388.800,135.200 388.800 C 135.860 388.800,136.400 388.980,136.400 389.200 C 136.400 389.420,136.940 389.600,137.600 389.600 C 138.260 389.600,138.800 389.741,138.800 389.913 C 138.800 390.085,139.277 390.265,139.860 390.313 C 140.442 390.361,141.117 390.563,141.360 390.762 C 141.602 390.960,142.835 391.251,144.100 391.408 C 145.365 391.564,146.400 391.851,146.400 392.046 C 146.400 392.241,147.120 392.400,148.000 392.400 C 148.880 392.400,149.600 392.580,149.600 392.800 C 149.600 393.020,150.320 393.200,151.200 393.200 C 152.080 393.200,152.800 393.380,152.800 393.600 C 152.800 393.820,153.700 394.000,154.800 394.000 C 155.900 394.000,156.800 394.180,156.800 394.400 C 156.800 394.620,157.419 394.800,158.176 394.800 C 158.933 394.800,159.664 394.980,159.800 395.200 C 159.936 395.420,161.027 395.600,162.224 395.600 C 163.421 395.600,164.400 395.780,164.400 396.000 C 164.400 396.222,165.467 396.400,166.800 396.400 C 168.133 396.400,169.200 396.578,169.200 396.800 C 169.200 397.029,170.400 397.200,172.000 397.200 C 173.600 397.200,174.800 397.371,174.800 397.600 C 174.800 397.839,176.333 398.000,178.600 398.000 C 180.867 398.000,182.400 398.161,182.400 398.400 C 182.400 398.660,188.400 398.800,199.600 398.800 C 210.800 398.800,216.800 398.660,216.800 398.400 C 216.800 398.161,218.333 398.000,220.600 398.000 C 222.867 398.000,224.400 397.839,224.400 397.600 C 224.400 397.371,225.600 397.200,227.200 397.200 C 228.800 397.200,230.000 397.029,230.000 396.800 C 230.000 396.578,231.067 396.400,232.400 396.400 C 233.733 396.400,234.800 396.222,234.800 396.000 C 234.800 395.780,235.779 395.600,236.976 395.600 C 238.173 395.600,239.264 395.420,239.400 395.200 C 239.536 394.980,240.447 394.800,241.424 394.800 C 242.401 394.800,243.200 394.620,243.200 394.400 C 243.200 394.180,243.920 394.000,244.800 394.000 C 245.680 394.000,246.400 393.820,246.400 393.600 C 246.400 393.380,247.120 393.200,248.000 393.200 C 248.880 393.200,249.600 393.020,249.600 392.800 C 249.600 392.580,250.320 392.400,251.200 392.400 C 252.080 392.400,252.800 392.234,252.800 392.032 C 252.800 391.829,253.973 391.538,255.406 391.385 C 256.839 391.231,258.109 390.947,258.229 390.753 C 258.349 390.559,258.887 390.400,259.424 390.400 C 259.961 390.400,260.400 390.220,260.400 390.000 C 260.400 389.780,260.940 389.600,261.600 389.600 C 262.260 389.600,262.800 389.420,262.800 389.200 C 262.800 388.980,263.239 388.800,263.776 388.800 C 264.313 388.800,264.864 388.620,265.000 388.400 C 265.136 388.180,265.777 388.000,266.424 388.000 C 267.071 388.000,267.600 387.820,267.600 387.600 C 267.600 387.380,267.955 387.200,268.388 387.200 C 268.821 387.200,269.817 386.840,270.600 386.400 C 271.383 385.960,272.253 385.600,272.532 385.600 C 273.259 385.600,275.193 384.656,275.197 384.300 C 275.199 384.135,275.740 384.000,276.400 384.000 C 277.060 384.000,277.600 383.820,277.600 383.600 C 277.600 383.380,277.960 383.200,278.400 383.200 C 278.840 383.200,279.200 383.020,279.200 382.800 C 279.200 382.580,279.560 382.400,280.000 382.400 C 280.440 382.400,280.800 382.220,280.800 382.000 C 280.800 381.780,281.340 381.600,282.000 381.600 C 282.660 381.600,283.200 381.420,283.200 381.200 C 283.200 380.980,283.560 380.800,284.000 380.800 C 284.440 380.800,284.800 380.620,284.800 380.400 C 284.800 380.180,285.160 380.000,285.600 380.000 C 286.040 380.000,286.400 379.820,286.400 379.600 C 286.400 379.380,286.760 379.200,287.200 379.200 C 287.640 379.200,288.000 379.020,288.000 378.800 C 288.000 378.580,288.360 378.400,288.800 378.400 C 289.240 378.400,289.600 378.254,289.600 378.075 C 289.600 377.896,290.230 377.502,291.000 377.200 C 291.770 376.898,292.400 376.504,292.400 376.325 C 292.400 376.146,292.760 376.000,293.200 376.000 C 293.640 376.000,294.000 375.820,294.000 375.600 C 294.000 375.380,294.264 375.200,294.586 375.200 C 295.399 375.200,298.000 373.924,298.000 373.526 C 298.000 373.347,298.360 373.200,298.800 373.200 C 299.240 373.200,299.600 373.020,299.600 372.800 C 299.600 372.580,299.920 372.400,300.312 372.400 C 300.703 372.400,301.283 372.040,301.600 371.600 C 301.917 371.160,302.497 370.800,302.888 370.800 C 303.280 370.800,303.600 370.620,303.600 370.400 C 303.600 370.180,303.894 370.000,304.253 370.000 C 304.612 370.000,305.197 369.684,305.553 369.297 C 305.909 368.911,306.695 368.340,307.300 368.030 C 307.905 367.719,308.400 367.315,308.400 367.132 C 308.400 366.950,308.670 366.800,309.000 366.800 C 309.330 366.800,309.600 366.620,309.600 366.400 C 309.600 366.180,309.888 366.000,310.240 366.000 C 310.591 366.000,311.383 365.460,312.000 364.800 C 312.617 364.140,313.369 363.600,313.672 363.600 C 313.975 363.600,314.483 363.240,314.800 362.800 C 315.117 362.360,315.625 362.000,315.928 362.000 C 316.231 362.000,316.983 361.460,317.600 360.800 C 318.217 360.140,318.932 359.600,319.189 359.600 C 319.447 359.600,319.892 359.375,320.180 359.100 C 320.467 358.825,321.106 358.330,321.599 358.000 C 322.093 357.670,323.210 356.725,324.081 355.900 C 324.952 355.075,325.842 354.400,326.059 354.400 C 326.275 354.400,327.329 353.500,328.400 352.400 C 329.471 351.300,330.543 350.400,330.782 350.400 C 331.347 350.400,350.400 331.351,350.400 330.786 C 350.400 330.549,351.480 329.296,352.800 328.000 C 354.120 326.704,355.200 325.535,355.200 325.400 C 355.200 325.266,355.750 324.581,356.423 323.878 C 357.095 323.175,357.932 322.060,358.282 321.400 C 358.632 320.740,359.252 319.909,359.659 319.553 C 360.067 319.197,360.400 318.652,360.400 318.341 C 360.400 318.031,360.760 317.517,361.200 317.200 C 361.640 316.883,362.000 316.375,362.000 316.072 C 362.000 315.769,362.540 315.017,363.200 314.400 C 363.860 313.783,364.400 313.031,364.400 312.728 C 364.400 312.425,364.760 311.917,365.200 311.600 C 365.640 311.283,366.000 310.743,366.000 310.400 C 366.000 310.057,366.360 309.517,366.800 309.200 C 367.240 308.883,367.600 308.476,367.600 308.295 C 367.600 308.114,367.960 307.580,368.400 307.108 C 368.840 306.636,369.200 306.013,369.200 305.725 C 369.200 305.436,369.380 305.200,369.600 305.200 C 369.820 305.200,370.000 304.922,370.000 304.583 C 370.000 304.244,370.360 303.580,370.800 303.108 C 371.240 302.636,371.600 302.013,371.600 301.725 C 371.600 301.436,371.780 301.200,372.000 301.200 C 372.220 301.200,372.400 300.840,372.400 300.400 C 372.400 299.960,372.580 299.600,372.800 299.600 C 373.020 299.600,373.200 299.240,373.200 298.800 C 373.200 298.360,373.347 298.000,373.526 298.000 C 373.924 298.000,375.200 295.399,375.200 294.586 C 375.200 294.264,375.380 294.000,375.600 294.000 C 375.820 294.000,376.000 293.640,376.000 293.200 C 376.000 292.760,376.180 292.400,376.400 292.400 C 376.620 292.400,376.800 292.130,376.800 291.800 C 376.800 291.470,376.980 291.200,377.200 291.200 C 377.420 291.200,377.600 290.840,377.600 290.400 C 377.600 289.960,377.780 289.600,378.000 289.600 C 378.220 289.600,378.400 289.240,378.400 288.800 C 378.400 288.360,378.580 288.000,378.800 288.000 C 379.020 288.000,379.200 287.640,379.200 287.200 C 379.200 286.760,379.380 286.400,379.600 286.400 C 379.820 286.400,380.000 286.040,380.000 285.600 C 380.000 285.160,380.180 284.800,380.400 284.800 C 380.620 284.800,380.800 284.440,380.800 284.000 C 380.800 283.560,380.980 283.200,381.200 283.200 C 381.420 283.200,381.600 282.840,381.600 282.400 C 381.600 281.960,381.780 281.600,382.000 281.600 C 382.220 281.600,382.400 281.060,382.400 280.400 C 382.400 279.740,382.580 279.200,382.800 279.200 C 383.020 279.200,383.200 278.840,383.200 278.400 C 383.200 277.960,383.380 277.600,383.600 277.600 C 383.820 277.600,384.000 277.240,384.000 276.800 C 384.000 276.360,384.180 276.000,384.400 276.000 C 384.620 276.000,384.800 275.550,384.800 275.000 C 384.800 274.450,384.980 274.000,385.200 274.000 C 385.420 274.000,385.600 273.651,385.600 273.224 C 385.600 272.797,385.780 272.336,386.000 272.200 C 386.220 272.064,386.400 271.524,386.400 271.000 C 386.400 270.476,386.580 269.936,386.800 269.800 C 387.020 269.664,387.200 269.113,387.200 268.576 C 387.200 268.039,387.335 267.599,387.500 267.598 C 387.665 267.597,388.233 266.202,388.763 264.498 C 389.293 262.794,389.878 261.229,390.063 261.020 C 390.248 260.811,390.400 260.172,390.400 259.600 C 390.400 259.028,390.579 258.381,390.798 258.162 C 391.016 257.944,391.312 256.648,391.454 255.282 C 391.597 253.917,391.868 252.800,392.057 252.800 C 392.246 252.800,392.400 252.260,392.400 251.600 C 392.400 250.940,392.580 250.400,392.800 250.400 C 393.020 250.400,393.200 249.680,393.200 248.800 C 393.200 247.920,393.380 247.200,393.600 247.200 C 393.820 247.200,394.000 246.300,394.000 245.200 C 394.000 244.100,394.180 243.200,394.400 243.200 C 394.620 243.200,394.800 242.581,394.800 241.824 C 394.800 241.067,394.980 240.336,395.200 240.200 C 395.420 240.064,395.600 238.973,395.600 237.776 C 395.600 236.579,395.780 235.600,396.000 235.600 C 396.222 235.600,396.400 234.533,396.400 233.200 C 396.400 231.867,396.578 230.800,396.800 230.800 C 397.029 230.800,397.200 229.600,397.200 228.000 C 397.200 226.400,397.371 225.200,397.600 225.200 C 397.835 225.200,398.000 223.800,398.000 221.800 C 398.000 219.800,398.165 218.400,398.400 218.400 C 398.661 218.400,398.800 212.000,398.800 200.000 C 398.800 188.000,398.661 181.600,398.400 181.600 C 398.165 181.600,398.000 180.200,398.000 178.200 C 398.000 176.200,397.835 174.800,397.600 174.800 C 397.367 174.800,397.200 173.467,397.200 171.600 C 397.200 169.733,397.033 168.400,396.800 168.400 C 396.580 168.400,396.400 167.421,396.400 166.224 C 396.400 165.027,396.220 163.936,396.000 163.800 C 395.780 163.664,395.600 162.653,395.600 161.553 C 395.600 160.321,395.446 159.648,395.200 159.800 C 394.953 159.952,394.800 159.271,394.800 158.024 C 394.800 156.911,394.620 156.000,394.400 156.000 C 394.180 156.000,394.000 155.280,394.000 154.400 C 394.000 153.520,393.820 152.800,393.600 152.800 C 393.380 152.800,393.200 152.080,393.200 151.200 C 393.200 150.320,393.020 149.600,392.800 149.600 C 392.580 149.600,392.400 148.880,392.400 148.000 C 392.400 147.120,392.241 146.400,392.046 146.400 C 391.851 146.400,391.564 145.365,391.408 144.100 C 391.251 142.835,390.960 141.602,390.762 141.360 C 390.563 141.117,390.361 140.442,390.313 139.860 C 390.265 139.277,390.085 138.800,389.913 138.800 C 389.741 138.800,389.600 138.260,389.600 137.600 C 389.600 136.940,389.420 136.400,389.200 136.400 C 388.980 136.400,388.800 135.860,388.800 135.200 C 388.800 134.540,388.620 134.000,388.400 134.000 C 388.180 134.000,388.000 133.561,388.000 133.024 C 388.000 132.487,387.820 131.936,387.600 131.800 C 387.380 131.664,387.200 131.203,387.200 130.776 C 387.200 130.349,387.020 130.000,386.800 130.000 C 386.580 130.000,386.400 129.460,386.400 128.800 C 386.400 128.140,386.220 127.600,386.000 127.600 C 385.780 127.600,385.600 127.150,385.600 126.600 C 385.600 126.050,385.420 125.600,385.200 125.600 C 384.980 125.600,384.800 125.240,384.800 124.800 C 384.800 124.360,384.620 124.000,384.400 124.000 C 384.180 124.000,384.000 123.640,384.000 123.200 C 384.000 122.760,383.820 122.400,383.600 122.400 C 383.380 122.400,383.200 121.860,383.200 121.200 C 383.200 120.540,383.020 120.000,382.800 120.000 C 382.580 120.000,382.400 119.640,382.400 119.200 C 382.400 118.760,382.220 118.400,382.000 118.400 C 381.780 118.400,381.600 118.040,381.600 117.600 C 381.600 117.160,381.420 116.800,381.200 116.800 C 380.980 116.800,380.800 116.440,380.800 116.000 C 380.800 115.560,380.620 115.200,380.400 115.200 C 380.180 115.200,380.000 114.660,380.000 114.000 C 380.000 113.340,379.820 112.800,379.600 112.800 C 379.380 112.800,379.200 112.429,379.200 111.976 C 379.200 111.523,379.020 111.264,378.800 111.400 C 378.580 111.536,378.400 111.364,378.400 111.018 C 378.400 110.225,377.611 108.805,376.700 107.957 C 376.315 107.599,376.000 107.012,376.000 106.653 C 376.000 106.294,375.840 106.000,375.645 106.000 C 375.449 106.000,375.162 105.325,375.008 104.501 C 374.853 103.676,374.606 102.911,374.458 102.801 C 374.310 102.690,373.758 101.745,373.232 100.700 C 372.705 99.655,372.123 98.800,371.937 98.800 C 371.752 98.800,371.600 98.607,371.600 98.372 C 371.600 98.137,371.060 97.159,370.400 96.200 C 369.740 95.241,369.200 94.263,369.200 94.028 C 369.200 93.793,369.020 93.600,368.800 93.600 C 368.580 93.600,368.400 93.330,368.400 93.000 C 368.400 92.670,368.220 92.400,368.000 92.400 C 367.780 92.400,367.600 92.170,367.600 91.888 C 367.600 91.607,367.240 91.117,366.800 90.800 C 366.360 90.483,366.000 89.943,366.000 89.600 C 366.000 89.257,365.640 88.717,365.200 88.400 C 364.760 88.083,364.400 87.543,364.400 87.200 C 364.400 86.857,364.040 86.317,363.600 86.000 C 363.160 85.683,362.800 85.143,362.800 84.800 C 362.800 84.457,362.440 83.917,362.000 83.600 C 361.560 83.283,361.200 82.775,361.200 82.472 C 361.200 82.169,360.660 81.417,360.000 80.800 C 359.340 80.183,358.800 79.514,358.800 79.312 C 358.800 79.109,358.170 78.208,357.400 77.308 C 356.630 76.409,356.000 75.555,356.000 75.410 C 356.000 75.266,355.100 74.271,354.000 73.200 C 352.900 72.129,352.000 71.053,352.000 70.809 C 352.000 70.565,350.560 68.941,348.800 67.200 C 347.040 65.459,345.600 63.873,345.600 63.676 C 345.600 63.252,344.249 61.834,340.859 58.700 C 339.491 57.435,338.476 56.400,338.604 56.400 C 338.732 56.400,338.386 55.950,337.836 55.400 C 337.286 54.850,336.640 54.400,336.401 54.400 C 336.162 54.400,334.541 52.960,332.800 51.200 C 331.059 49.440,329.435 48.000,329.191 48.000 C 328.947 48.000,327.866 47.094,326.787 45.987 C 325.709 44.880,324.757 44.025,324.672 44.087 C 324.587 44.149,323.726 43.526,322.759 42.701 C 321.792 41.877,320.847 41.202,320.660 41.201 C 320.474 41.201,319.817 40.660,319.200 40.000 C 318.583 39.340,317.831 38.800,317.528 38.800 C 317.225 38.800,316.717 38.440,316.400 38.000 C 316.083 37.560,315.543 37.200,315.200 37.200 C 314.857 37.200,314.317 36.840,314.000 36.400 C 313.683 35.960,313.143 35.600,312.800 35.600 C 312.457 35.600,311.917 35.240,311.600 34.800 C 311.283 34.360,310.743 34.000,310.400 34.000 C 310.057 34.000,309.517 33.640,309.200 33.200 C 308.883 32.760,308.476 32.400,308.295 32.400 C 308.114 32.400,307.580 32.040,307.108 31.600 C 306.636 31.160,306.013 30.800,305.725 30.800 C 305.436 30.800,305.200 30.648,305.200 30.463 C 305.200 30.277,304.345 29.694,303.300 29.165 C 302.255 28.637,301.167 27.983,300.882 27.713 C 300.399 27.254,296.924 25.515,296.333 25.436 C 296.187 25.416,295.932 25.265,295.767 25.100 C 295.602 24.935,295.176 24.800,294.822 24.800 C 294.467 24.800,293.917 24.440,293.600 24.000 C 293.283 23.560,292.703 23.200,292.312 23.200 C 291.920 23.200,291.599 23.065,291.597 22.900 C 291.593 22.535,289.651 21.600,288.897 21.600 C 288.598 21.600,288.464 21.420,288.600 21.200 C 288.736 20.980,288.477 20.800,288.024 20.800 C 287.571 20.800,287.200 20.620,287.200 20.400 C 287.200 20.180,286.840 20.000,286.400 20.000 C 285.960 20.000,285.600 19.820,285.600 19.600 C 285.600 19.380,285.060 19.200,284.400 19.200 C 283.740 19.200,283.200 19.020,283.200 18.800 C 283.200 18.580,282.840 18.400,282.400 18.400 C 281.960 18.400,281.600 18.220,281.600 18.000 C 281.600 17.780,281.240 17.600,280.800 17.600 C 280.360 17.600,280.000 17.420,280.000 17.200 C 280.000 16.980,279.640 16.800,279.200 16.800 C 278.760 16.800,278.400 16.620,278.400 16.400 C 278.400 16.180,277.860 16.000,277.200 16.000 C 276.540 16.000,276.000 15.820,276.000 15.600 C 276.000 15.380,275.640 15.200,275.200 15.200 C 274.760 15.200,274.400 15.020,274.400 14.800 C 274.400 14.580,273.950 14.400,273.400 14.400 C 272.850 14.400,272.400 14.220,272.400 14.000 C 272.400 13.780,271.950 13.600,271.400 13.600 C 270.850 13.600,270.400 13.420,270.400 13.200 C 270.400 12.980,269.950 12.800,269.400 12.800 C 268.850 12.800,268.400 12.620,268.400 12.400 C 268.400 12.180,267.871 12.000,267.224 12.000 C 266.577 12.000,265.936 11.820,265.800 11.600 C 265.664 11.380,265.113 11.200,264.576 11.200 C 264.039 11.200,263.600 11.020,263.600 10.800 C 263.600 10.580,263.071 10.400,262.424 10.400 C 261.777 10.400,261.136 10.220,261.000 10.000 C 260.864 9.780,260.343 9.600,259.843 9.600 C 259.343 9.600,258.808 9.475,258.655 9.322 C 258.339 9.005,257.712 8.857,255.300 8.528 C 254.365 8.400,253.600 8.139,253.600 7.948 C 253.600 7.757,252.880 7.600,252.000 7.600 C 251.120 7.600,250.400 7.420,250.400 7.200 C 250.400 6.980,249.680 6.800,248.800 6.800 C 247.920 6.800,247.200 6.620,247.200 6.400 C 247.200 6.180,246.480 6.000,245.600 6.000 C 244.720 6.000,244.000 5.820,244.000 5.600 C 244.000 5.380,243.190 5.200,242.200 5.200 C 241.210 5.200,240.400 5.020,240.400 4.800 C 240.400 4.580,239.500 4.400,238.400 4.400 C 237.300 4.400,236.400 4.220,236.400 4.000 C 236.400 3.778,235.333 3.600,234.000 3.600 C 232.667 3.600,231.600 3.422,231.600 3.200 C 231.600 2.971,230.400 2.800,228.800 2.800 C 227.200 2.800,226.000 2.629,226.000 2.400 C 226.000 2.169,224.733 2.000,223.000 2.000 C 221.267 2.000,220.000 1.831,220.000 1.600 C 220.000 1.351,217.675 1.200,213.824 1.200 C 210.137 1.200,207.548 1.039,207.400 0.800 C 207.065 0.257,192.000 0.257,192.000 0.800 M214.182 15.218 C 226.658 16.399,233.220 17.486,244.800 20.287 C 296.468 32.788,341.505 68.870,365.516 117.000 C 368.656 123.295,370.400 127.003,370.400 127.386 C 370.400 127.493,370.940 128.759,371.600 130.200 C 372.260 131.641,372.800 132.926,372.800 133.055 C 372.800 133.184,373.416 134.934,374.169 136.945 C 375.895 141.554,378.118 148.853,379.608 154.800 C 380.642 158.929,381.016 160.680,382.381 167.800 C 382.592 168.900,382.963 171.240,383.204 173.000 C 383.446 174.760,383.730 176.740,383.835 177.400 C 385.476 187.729,385.478 212.437,383.838 222.600 C 383.731 223.260,383.441 225.240,383.193 227.000 C 381.915 236.054,378.925 248.859,376.189 257.000 C 372.796 267.094,371.326 270.724,366.733 280.356 C 349.477 316.539,320.046 346.562,283.800 364.956 C 277.739 368.032,276.408 368.658,272.600 370.220 C 271.720 370.581,270.370 371.147,269.600 371.479 C 261.176 375.105,247.940 379.113,237.600 381.168 C 230.739 382.532,229.553 382.744,226.200 383.204 C 224.440 383.446,222.460 383.731,221.800 383.838 C 206.483 386.307,184.231 385.329,161.600 381.192 C 154.898 379.967,138.901 375.168,131.000 372.013 C 118.360 366.966,101.583 357.799,92.100 350.759 C 90.945 349.902,88.967 348.435,87.705 347.500 C 77.611 340.025,61.493 324.428,55.498 316.335 C 54.901 315.529,54.181 314.629,53.897 314.335 C 48.004 308.212,28.800 275.666,28.800 271.800 C 28.800 271.685,28.460 270.828,28.044 269.896 C 24.501 261.951,20.086 247.496,17.997 237.000 C 16.188 227.911,15.392 221.616,14.836 212.000 C 14.613 208.150,14.343 204.010,14.236 202.800 C 14.063 200.858,14.907 183.997,15.416 179.200 C 15.735 176.204,17.111 167.202,17.588 165.000 C 17.779 164.120,18.157 162.320,18.427 161.000 C 20.532 150.737,25.323 135.589,29.155 127.076 C 29.620 126.044,30.379 124.345,30.842 123.300 C 34.349 115.384,38.934 107.184,45.063 97.868 C 50.127 90.170,51.607 88.190,58.578 79.800 C 70.359 65.621,86.797 51.666,103.703 41.490 C 111.356 36.884,123.332 30.866,130.493 28.029 C 143.769 22.769,160.144 18.342,172.000 16.810 C 173.870 16.568,176.401 16.197,177.624 15.985 C 178.847 15.773,180.827 15.587,182.024 15.570 C 183.221 15.554,185.010 15.397,186.000 15.220 C 188.696 14.741,209.120 14.739,214.182 15.218 M191.200 50.434 C 187.790 50.607,183.560 50.950,181.800 51.197 C 175.109 52.136,172.951 52.471,171.400 52.811 C 170.520 53.003,168.810 53.378,167.600 53.644 C 139.071 59.912,114.593 73.348,93.769 94.170 C 83.717 104.221,76.976 112.945,69.329 125.800 C 64.999 133.079,58.364 148.719,56.007 157.200 C 55.732 158.190,55.369 159.450,55.200 160.000 C 54.736 161.509,54.097 163.989,53.653 166.000 C 53.435 166.990,53.075 168.610,52.855 169.600 C 52.414 171.577,51.875 174.697,51.231 179.000 C 49.257 192.188,49.621 213.266,52.038 225.800 C 52.250 226.900,52.612 228.790,52.842 230.000 C 53.072 231.210,53.415 232.830,53.605 233.600 C 53.794 234.370,54.162 235.900,54.421 237.000 C 56.838 247.259,63.322 263.523,68.734 272.900 C 69.210 273.725,69.980 275.075,70.445 275.900 C 76.261 286.219,88.449 301.325,97.491 309.420 C 103.837 315.102,104.120 315.347,106.000 316.794 C 106.990 317.556,107.890 318.279,108.000 318.400 C 108.343 318.778,113.657 322.573,116.800 324.685 C 131.753 334.732,149.848 342.324,168.400 346.333 C 172.470 347.213,174.348 347.556,177.200 347.944 C 178.850 348.168,181.730 348.580,183.600 348.861 C 188.233 349.555,211.439 349.564,215.800 348.873 C 217.560 348.594,220.350 348.180,222.000 347.953 C 240.302 345.438,260.021 338.423,276.600 328.530 C 312.227 307.271,338.551 270.483,346.389 231.000 C 346.651 229.680,347.017 227.880,347.202 227.000 C 347.563 225.287,348.100 221.756,348.785 216.600 C 349.865 208.470,349.674 190.519,348.399 180.400 C 346.101 162.157,339.056 141.147,330.092 125.800 C 326.419 119.511,324.140 116.049,319.714 110.028 C 312.196 99.801,298.096 85.847,288.554 79.190 C 271.748 67.465,257.663 60.582,241.000 55.952 C 240.120 55.707,238.950 55.365,238.400 55.192 C 236.403 54.562,231.193 53.425,224.541 52.168 C 219.852 51.281,201.615 49.825,198.200 50.064 C 197.760 50.094,194.610 50.261,191.200 50.434 M178.200 203.600 L 178.200 289.000 150.825 289.103 C 129.190 289.184,123.384 289.100,123.131 288.703 C 122.763 288.122,122.676 119.588,123.044 118.630 C 123.264 118.057,125.966 118.005,150.744 118.097 L 178.200 118.200 178.200 203.600 M282.614 119.100 C 282.464 119.705,282.174 120.260,281.970 120.333 C 281.767 120.407,281.600 120.642,281.600 120.855 C 281.600 121.069,280.880 122.304,280.000 123.600 C 279.120 124.896,278.400 126.146,278.400 126.378 C 278.400 126.610,278.220 126.800,278.000 126.800 C 277.780 126.800,277.600 127.036,277.600 127.325 C 277.600 127.613,277.240 128.236,276.800 128.708 C 276.360 129.180,276.000 129.677,276.000 129.811 C 276.000 129.946,275.460 130.841,274.800 131.800 C 274.140 132.759,273.600 133.737,273.600 133.972 C 273.600 134.207,273.420 134.400,273.200 134.400 C 272.980 134.400,272.800 134.559,272.800 134.753 C 272.800 134.947,270.910 138.114,268.600 141.791 C 266.290 145.467,264.400 148.556,264.400 148.655 C 264.400 148.753,264.216 149.051,263.992 149.317 C 263.401 150.016,260.400 154.790,260.400 155.030 C 260.400 155.142,260.040 155.620,259.600 156.092 C 259.160 156.564,258.800 157.187,258.800 157.475 C 258.800 157.764,258.620 158.000,258.400 158.000 C 258.180 158.000,258.000 158.174,258.000 158.387 C 258.000 158.743,255.265 163.260,254.469 164.218 C 254.278 164.448,254.049 164.816,253.961 165.036 C 253.793 165.453,250.628 170.539,247.682 175.125 C 246.737 176.596,245.861 178.115,245.735 178.500 C 245.610 178.885,245.348 179.200,245.153 179.200 C 244.959 179.200,244.800 179.388,244.800 179.618 C 244.800 179.848,243.900 181.370,242.800 183.000 C 241.700 184.630,240.800 186.070,240.800 186.199 C 240.800 186.328,240.612 186.651,240.382 186.917 C 239.811 187.576,236.591 192.677,235.658 194.400 L 234.900 195.800 236.601 199.200 C 238.438 202.871,242.341 210.427,245.384 216.200 C 247.754 220.699,255.070 234.875,257.770 240.200 C 258.885 242.400,259.933 244.260,260.099 244.333 C 260.264 244.407,260.400 244.724,260.400 245.039 C 260.400 245.567,261.134 247.134,261.600 247.600 C 261.820 247.820,263.281 250.631,269.395 262.600 C 271.642 267.000,273.868 271.280,274.341 272.112 C 274.813 272.944,275.200 273.874,275.200 274.179 C 275.200 274.484,275.335 274.793,275.500 274.867 C 275.665 274.940,276.542 276.440,277.449 278.200 C 278.356 279.960,279.864 282.875,280.801 284.678 C 281.754 286.513,282.397 288.230,282.263 288.580 C 281.906 289.511,220.875 289.333,220.349 288.400 C 220.163 288.070,219.558 286.765,219.005 285.500 C 218.452 284.235,217.575 282.255,217.055 281.100 C 216.227 279.260,215.083 276.639,212.909 271.600 C 212.576 270.830,211.895 269.300,211.395 268.200 C 210.895 267.100,210.178 265.480,209.801 264.600 C 209.425 263.720,208.794 262.280,208.400 261.400 C 208.006 260.520,207.373 259.080,206.995 258.200 C 206.616 257.320,205.806 255.520,205.195 254.200 C 203.811 251.212,202.850 249.037,201.219 245.200 C 200.517 243.550,199.416 241.067,198.772 239.682 C 198.127 238.297,197.600 237.087,197.600 236.992 C 197.600 236.742,195.312 231.662,194.389 229.862 C 193.955 229.016,193.600 227.981,193.600 227.562 C 193.600 227.143,193.420 226.800,193.200 226.800 C 192.980 226.800,192.800 226.547,192.800 226.238 C 192.800 225.929,192.457 224.984,192.039 224.138 C 191.227 222.499,189.835 219.467,188.393 216.200 C 187.908 215.100,187.081 213.250,186.555 212.088 C 186.030 210.927,185.600 209.900,185.600 209.806 C 185.600 209.713,185.073 208.503,184.428 207.118 C 183.784 205.733,182.683 203.250,181.981 201.600 C 181.280 199.950,180.367 197.845,179.953 196.922 C 178.972 194.735,178.974 194.717,180.541 192.067 C 183.075 187.782,186.520 182.198,187.659 180.528 C 188.287 179.608,188.800 178.663,188.800 178.428 C 188.800 178.193,188.980 178.000,189.200 178.000 C 189.420 178.000,189.600 177.807,189.600 177.572 C 189.600 177.337,190.140 176.359,190.800 175.400 C 191.460 174.441,192.000 173.463,192.000 173.228 C 192.000 172.993,192.180 172.800,192.400 172.800 C 192.620 172.800,192.800 172.530,192.800 172.200 C 192.800 171.870,192.980 171.600,193.200 171.600 C 193.420 171.600,193.600 171.407,193.600 171.172 C 193.600 170.937,194.140 169.959,194.800 169.000 C 195.460 168.041,196.000 167.164,196.000 167.051 C 196.000 166.938,197.710 164.125,199.800 160.800 C 201.890 157.475,203.600 154.665,203.600 154.555 C 203.600 154.446,204.320 153.296,205.200 152.000 C 206.080 150.704,206.800 149.488,206.800 149.297 C 206.800 149.107,207.115 148.594,207.500 148.158 C 208.388 147.153,209.583 145.209,209.871 144.300 C 209.993 143.915,210.252 143.600,210.447 143.600 C 210.641 143.600,210.800 143.442,210.800 143.249 C 210.800 142.934,216.787 133.090,220.252 127.706 C 220.994 126.555,221.600 125.430,221.600 125.206 C 221.600 124.983,221.780 124.800,222.000 124.800 C 222.220 124.800,222.400 124.607,222.400 124.372 C 222.400 124.137,222.940 123.159,223.600 122.200 C 224.260 121.241,224.800 120.263,224.800 120.028 C 224.800 119.793,224.980 119.600,225.200 119.600 C 225.420 119.600,225.600 119.345,225.600 119.033 C 225.600 118.072,225.839 118.064,254.743 118.032 L 282.887 118.000 282.614 119.100 " stroke="none" fill="#9c244c" fill-rule="evenodd"></path><path id="path3" d="M123.385 118.900 C 123.280 119.175,123.241 157.470,123.297 204.000 L 123.400 288.600 150.600 288.600 L 177.800 288.600 177.901 203.500 L 178.002 118.400 150.788 118.400 C 129.386 118.400,123.534 118.507,123.385 118.900 M226.102 118.900 C 225.140 120.113,223.618 122.799,223.895 122.794 C 224.063 122.791,224.695 121.891,225.300 120.794 L 226.400 118.800 254.200 118.800 C 269.490 118.800,282.000 118.900,282.000 119.022 C 282.000 119.144,281.280 120.304,280.400 121.600 C 279.520 122.896,278.800 124.064,278.800 124.196 C 278.800 124.328,277.885 125.793,276.766 127.451 C 275.647 129.109,274.813 130.546,274.911 130.645 C 275.132 130.866,282.400 119.380,282.400 118.810 C 282.400 118.159,226.618 118.249,226.102 118.900 M177.501 203.500 L 177.400 288.200 150.500 288.303 L 123.600 288.406 123.600 203.603 L 123.600 118.800 150.601 118.800 L 177.602 118.800 177.501 203.500 M222.770 124.066 C 222.498 124.580,222.013 125.405,221.692 125.900 C 221.371 126.395,221.195 126.800,221.301 126.800 C 221.636 126.800,223.669 123.536,223.462 123.329 C 223.354 123.220,223.042 123.552,222.770 124.066 M219.853 128.791 C 218.721 130.502,218.425 131.518,219.443 130.200 C 220.182 129.244,221.285 127.200,221.063 127.200 C 220.977 127.200,220.432 127.916,219.853 128.791 M216.784 133.900 C 213.620 138.897,213.106 139.724,211.972 141.648 C 211.350 142.702,210.542 144.023,210.175 144.582 C 209.808 145.142,209.598 145.600,209.707 145.600 C 209.923 145.600,211.623 142.976,215.671 136.400 C 218.976 131.030,218.878 131.200,218.671 131.200 C 218.573 131.200,217.725 132.415,216.784 133.900 M272.111 134.900 C 270.807 136.935,269.330 139.320,268.830 140.200 C 267.259 142.965,269.291 140.246,271.372 136.800 C 272.368 135.150,273.565 133.215,274.031 132.500 C 274.497 131.785,274.789 131.200,274.680 131.200 C 274.571 131.200,273.415 132.865,272.111 134.900 M266.322 144.100 C 264.718 146.519,263.894 148.000,264.150 148.000 C 264.295 148.000,266.443 144.720,267.752 142.500 C 268.573 141.108,267.535 142.270,266.322 144.100 M208.502 147.317 C 208.063 148.061,207.390 149.149,207.006 149.735 C 206.622 150.321,206.393 150.800,206.497 150.800 C 206.814 150.800,209.671 146.338,209.479 146.145 C 209.380 146.047,208.940 146.574,208.502 147.317 M262.228 150.638 C 261.410 151.868,260.824 152.958,260.925 153.059 C 261.026 153.160,261.523 152.558,262.030 151.721 C 262.537 150.884,263.208 149.795,263.522 149.300 C 264.740 147.377,263.632 148.523,262.228 150.638 M205.433 152.205 C 204.145 154.171,202.422 157.200,202.591 157.200 C 202.880 157.200,206.453 151.520,206.275 151.342 C 206.184 151.250,205.805 151.639,205.433 152.205 M258.732 156.300 C 257.750 157.785,256.827 159.270,256.680 159.600 C 256.534 159.930,254.963 162.428,253.190 165.150 C 251.417 167.873,250.045 170.178,250.140 170.273 C 250.236 170.369,250.996 169.311,251.830 167.923 C 252.664 166.536,254.213 164.103,255.273 162.518 C 256.333 160.933,257.200 159.528,257.200 159.396 C 257.200 159.264,257.889 158.131,258.730 156.878 C 260.597 154.099,260.894 153.600,260.682 153.600 C 260.592 153.600,259.714 154.815,258.732 156.300 M201.029 159.229 C 200.430 160.133,200.017 160.951,200.112 161.045 C 200.206 161.139,200.773 160.476,201.371 159.571 C 201.970 158.667,202.383 157.849,202.288 157.755 C 202.194 157.661,201.627 158.324,201.029 159.229 M198.653 163.191 C 198.074 164.067,197.600 164.885,197.600 165.009 C 197.600 165.134,196.700 166.570,195.600 168.200 C 194.500 169.830,193.600 171.275,193.600 171.410 C 193.600 171.545,193.091 172.408,192.468 173.328 C 190.827 175.753,190.707 176.000,191.176 176.000 C 191.409 176.000,191.600 175.810,191.600 175.578 C 191.600 175.346,192.320 174.096,193.200 172.800 C 194.080 171.504,194.800 170.334,194.800 170.200 C 194.800 170.066,195.486 168.931,196.324 167.678 C 198.129 164.980,200.101 161.600,199.870 161.600 C 199.780 161.600,199.232 162.316,198.653 163.191 M247.830 173.638 C 246.792 175.199,246.025 176.558,246.125 176.658 C 246.225 176.758,246.893 175.886,247.610 174.720 C 248.327 173.554,249.179 172.195,249.503 171.700 C 249.827 171.205,250.008 170.800,249.905 170.800 C 249.802 170.800,248.868 172.077,247.830 173.638 M189.702 177.717 C 189.263 178.461,188.590 179.549,188.206 180.135 C 187.791 180.767,187.689 181.200,187.954 181.200 C 188.199 181.200,188.400 181.007,188.400 180.772 C 188.400 180.537,188.957 179.534,189.639 178.544 C 190.320 177.554,190.792 176.659,190.688 176.555 C 190.584 176.451,190.140 176.974,189.702 177.717 M243.460 180.596 C 242.217 182.464,241.200 184.094,241.200 184.218 C 241.200 184.342,240.511 185.469,239.670 186.722 C 237.652 189.725,237.273 190.415,238.087 189.600 C 238.416 189.270,240.066 186.782,241.753 184.071 C 243.439 181.360,245.106 178.705,245.456 178.171 C 245.806 177.637,246.008 177.200,245.906 177.200 C 245.804 177.200,244.703 178.728,243.460 180.596 M186.161 183.469 C 185.551 184.531,184.578 186.120,183.999 187.000 C 182.225 189.695,181.044 191.832,181.679 191.200 C 182.550 190.332,187.663 181.930,187.450 181.717 C 187.351 181.618,186.771 182.406,186.161 183.469 M236.824 191.318 C 236.523 191.803,236.015 192.605,235.693 193.100 C 235.371 193.595,235.195 194.000,235.301 194.000 C 235.583 194.000,237.686 190.753,237.515 190.581 C 237.435 190.502,237.124 190.833,236.824 191.318 M180.246 192.986 C 179.373 194.318,180.120 199.214,181.053 198.280 C 181.166 198.167,180.976 197.527,180.629 196.857 C 179.828 195.308,179.833 194.227,180.646 192.986 C 181.001 192.444,181.202 192.000,181.092 192.000 C 180.982 192.000,180.601 192.444,180.246 192.986 M234.400 196.173 C 234.400 196.647,238.901 205.233,239.064 205.069 C 239.195 204.938,234.960 196.427,234.568 196.035 C 234.476 195.942,234.400 196.004,234.400 196.173 M181.234 198.888 C 181.216 199.047,181.650 200.161,182.201 201.365 C 182.751 202.568,183.386 204.038,183.612 204.632 C 183.838 205.225,184.115 205.618,184.228 205.505 C 184.342 205.391,183.722 203.792,182.852 201.949 C 181.981 200.107,181.253 198.730,181.234 198.888 M239.470 206.279 C 239.613 206.676,240.061 207.478,240.465 208.062 C 240.869 208.646,241.200 209.310,241.200 209.538 C 241.200 209.766,241.378 210.063,241.595 210.197 C 242.134 210.530,241.650 209.261,240.735 207.938 C 240.331 207.354,240.000 206.690,240.000 206.462 C 240.000 206.234,239.822 205.937,239.605 205.803 C 239.369 205.657,239.314 205.849,239.470 206.279 M184.400 206.094 C 184.400 206.568,186.512 211.221,186.661 211.073 C 186.841 210.892,185.195 206.747,184.733 206.220 C 184.550 206.011,184.400 205.954,184.400 206.094 M243.600 214.159 C 243.600 214.498,246.076 219.021,246.469 219.400 C 246.697 219.620,246.232 218.495,245.437 216.900 C 244.193 214.407,243.600 213.522,243.600 214.159 M188.491 215.634 C 189.822 218.950,192.179 223.954,192.336 223.798 C 192.445 223.688,192.342 223.194,192.106 222.699 C 190.295 218.895,189.200 216.389,189.200 216.049 C 189.200 215.828,188.989 215.517,188.732 215.358 C 188.432 215.173,188.346 215.272,188.491 215.634 M192.495 224.700 C 192.574 224.865,192.835 225.450,193.077 226.000 C 193.319 226.550,193.966 227.990,194.515 229.200 C 195.064 230.410,195.825 232.120,196.204 233.000 C 196.584 233.880,197.132 235.143,197.422 235.806 C 197.711 236.469,198.145 237.529,198.385 238.161 C 198.626 238.794,198.910 239.224,199.016 239.117 C 199.195 238.938,198.834 238.012,196.705 233.200 C 193.123 225.101,192.793 224.400,192.566 224.400 C 192.449 224.400,192.417 224.535,192.495 224.700 M254.982 236.200 C 256.900 239.940,258.648 243.180,258.867 243.400 C 259.086 243.620,257.707 240.740,255.804 237.000 C 253.900 233.260,252.151 230.020,251.918 229.800 C 251.685 229.580,253.064 232.460,254.982 236.200 M199.200 239.751 C 199.200 240.218,200.477 242.857,200.629 242.705 C 200.838 242.495,199.688 239.600,199.395 239.600 C 199.288 239.600,199.200 239.668,199.200 239.751 M200.800 243.351 C 200.800 243.818,202.077 246.457,202.229 246.305 C 202.438 246.095,201.288 243.200,200.995 243.200 C 200.888 243.200,200.800 243.268,200.800 243.351 M260.004 245.707 C 259.997 246.231,262.090 250.043,262.280 249.854 C 262.378 249.755,261.907 248.713,261.233 247.537 C 260.559 246.362,260.006 245.538,260.004 245.707 M202.418 246.851 C 202.380 247.380,203.657 250.076,203.852 249.881 C 203.965 249.768,203.693 248.984,203.247 248.138 C 202.800 247.292,202.427 246.713,202.418 246.851 M263.271 252.300 C 264.299 254.545,267.688 260.845,267.805 260.728 C 268.000 260.534,263.642 252.000,263.348 252.000 C 263.230 252.000,263.195 252.135,263.271 252.300 M207.007 257.479 C 207.682 259.093,208.000 259.558,208.000 258.928 C 208.000 258.431,206.809 256.000,206.565 256.000 C 206.468 256.000,206.667 256.666,207.007 257.479 M208.392 260.578 C 208.606 261.142,209.145 262.412,209.591 263.401 C 210.036 264.391,210.780 266.055,211.245 267.100 C 211.709 268.145,212.519 269.950,213.045 271.112 C 213.570 272.273,214.000 273.303,214.000 273.400 C 214.000 273.861,216.080 278.054,216.233 277.901 C 216.329 277.805,215.846 276.483,215.161 274.963 C 214.476 273.443,213.595 271.480,213.203 270.600 C 211.060 265.784,210.629 264.820,209.755 262.888 C 209.230 261.727,208.800 260.612,208.800 260.412 C 208.800 260.211,208.621 259.936,208.401 259.801 C 208.137 259.638,208.134 259.901,208.392 260.578 M269.083 263.400 C 269.264 263.840,269.975 265.280,270.664 266.600 C 271.352 267.920,272.756 270.620,273.783 272.600 C 274.810 274.580,275.832 276.380,276.054 276.600 C 276.544 277.085,269.662 263.568,269.130 263.000 C 268.895 262.749,268.877 262.898,269.083 263.400 M277.204 278.907 C 277.197 279.431,279.290 283.243,279.480 283.054 C 279.578 282.955,279.107 281.913,278.433 280.737 C 277.759 279.562,277.206 278.738,277.204 278.907 M218.817 284.300 C 218.839 284.701,220.362 287.470,220.383 287.149 C 220.411 286.735,219.205 284.000,218.995 284.000 C 218.888 284.000,218.808 284.135,218.817 284.300 M281.384 287.550 L 281.654 288.400 251.507 288.400 C 228.593 288.400,221.245 288.285,220.880 287.920 C 220.559 287.599,220.400 287.585,220.400 287.877 C 220.400 288.749,222.137 288.800,251.833 288.800 C 281.428 288.800,282.000 288.785,282.000 288.024 C 282.000 287.597,281.801 287.124,281.557 286.974 C 281.259 286.789,281.203 286.978,281.384 287.550 " stroke="none" fill="#cc94a4" fill-rule="evenodd"></path><path id="path4" d="M188.505 15.087 C 189.114 15.179,190.014 15.177,190.505 15.082 C 190.997 14.987,190.500 14.911,189.400 14.914 C 188.300 14.917,187.897 14.995,188.505 15.087 M209.100 15.082 C 209.595 15.178,210.405 15.178,210.900 15.082 C 211.395 14.987,210.990 14.909,210.000 14.909 C 209.010 14.909,208.605 14.987,209.100 15.082 M192.900 50.291 C 193.725 50.378,195.075 50.378,195.900 50.291 C 196.725 50.205,196.050 50.134,194.400 50.134 C 192.750 50.134,192.075 50.205,192.900 50.291 M203.511 50.293 C 204.451 50.378,205.891 50.377,206.711 50.291 C 207.530 50.205,206.760 50.136,205.000 50.137 C 203.240 50.139,202.570 50.209,203.511 50.293 M324.000 62.525 C 324.000 62.594,324.585 63.179,325.300 63.825 L 326.600 65.000 325.425 63.700 C 324.330 62.488,324.000 62.216,324.000 62.525 M68.393 69.100 L 64.200 73.400 68.500 69.207 C 70.865 66.901,72.800 64.966,72.800 64.907 C 72.800 64.618,72.287 65.106,68.393 69.100 M335.200 73.725 C 335.200 73.794,335.785 74.379,336.500 75.025 L 337.800 76.200 336.625 74.900 C 335.530 73.688,335.200 73.416,335.200 73.725 M123.044 118.630 C 122.676 119.588,122.763 288.122,123.131 288.703 C 123.384 289.100,129.190 289.184,150.825 289.103 L 178.200 289.000 178.200 203.600 L 178.200 118.200 150.744 118.097 C 125.966 118.005,123.264 118.057,123.044 118.630 M226.100 118.265 C 225.825 118.376,225.600 118.668,225.600 118.913 C 225.600 119.224,225.746 119.214,226.080 118.880 C 226.793 118.167,282.247 118.187,282.535 118.900 C 282.656 119.199,282.750 119.118,282.768 118.700 C 282.799 118.020,227.754 117.598,226.100 118.265 M177.901 203.500 L 177.800 288.600 150.600 288.600 L 123.400 288.600 123.297 204.000 C 123.241 157.470,123.280 119.175,123.385 118.900 C 123.534 118.507,129.386 118.400,150.788 118.400 L 178.002 118.400 177.901 203.500 M223.453 122.391 C 222.874 123.267,222.400 124.117,222.400 124.280 C 222.400 124.444,222.642 124.223,222.939 123.789 C 224.241 121.881,224.878 120.800,224.699 120.800 C 224.593 120.800,224.032 121.516,223.453 122.391 M280.824 121.718 C 280.523 122.203,280.015 123.005,279.693 123.500 C 279.371 123.995,279.195 124.400,279.301 124.400 C 279.583 124.400,281.686 121.153,281.515 120.981 C 281.435 120.902,281.124 121.233,280.824 121.718 M220.646 127.000 C 220.291 127.550,219.709 128.495,219.353 129.100 L 218.705 130.200 219.510 129.226 C 220.460 128.076,221.721 126.000,221.469 126.000 C 221.371 126.000,221.001 126.450,220.646 127.000 M276.832 127.939 C 276.179 129.160,276.314 129.500,277.041 128.463 C 277.393 127.960,277.588 127.454,277.473 127.340 C 277.359 127.225,277.070 127.495,276.832 127.939 M275.053 130.900 L 274.333 132.200 275.158 131.200 C 275.889 130.313,276.214 129.600,275.886 129.600 C 275.824 129.600,275.449 130.185,275.053 130.900 M218.024 131.318 C 217.723 131.803,217.215 132.605,216.893 133.100 C 216.571 133.595,216.395 134.000,216.501 134.000 C 216.783 134.000,218.886 130.753,218.715 130.581 C 218.635 130.502,218.324 130.833,218.024 131.318 M271.786 136.100 L 271.152 137.400 271.967 136.400 C 272.752 135.437,273.008 134.800,272.610 134.800 C 272.506 134.800,272.135 135.385,271.786 136.100 M214.752 136.500 C 214.490 136.995,214.015 137.850,213.696 138.400 C 213.139 139.359,213.143 139.367,213.788 138.600 C 214.586 137.652,215.705 135.600,215.424 135.600 C 215.316 135.600,215.014 136.005,214.752 136.500 M267.506 142.900 C 266.103 145.155,264.629 147.495,264.231 148.100 C 263.808 148.743,263.693 149.200,263.954 149.200 C 264.199 149.200,264.400 149.038,264.400 148.840 C 264.400 148.642,265.625 146.527,267.122 144.140 C 270.608 138.582,270.480 138.800,270.253 138.800 C 270.146 138.800,268.910 140.645,267.506 142.900 M211.414 141.835 C 211.041 142.404,210.827 142.961,210.939 143.072 C 211.050 143.183,211.429 142.718,211.781 142.037 C 212.559 140.533,212.344 140.415,211.414 141.835 M209.014 145.835 C 208.641 146.404,208.405 146.938,208.489 147.022 C 208.573 147.107,208.958 146.641,209.344 145.988 C 210.206 144.528,209.948 144.409,209.014 145.835 M207.269 148.439 C 206.510 149.654,206.966 149.816,207.755 148.612 C 208.120 148.056,208.278 147.600,208.105 147.600 C 207.933 147.600,207.557 147.978,207.269 148.439 M262.492 150.935 C 262.059 151.669,261.389 152.794,261.005 153.435 L 260.305 154.600 261.133 153.600 C 262.079 152.457,263.744 149.600,263.465 149.600 C 263.363 149.600,262.925 150.201,262.492 150.935 M205.057 152.194 C 204.255 153.400,203.600 154.522,203.600 154.687 C 203.600 154.964,204.444 153.792,206.182 151.100 C 206.572 150.495,206.807 150.000,206.703 150.000 C 206.598 150.000,205.858 150.987,205.057 152.194 M202.953 155.700 C 201.576 158.036,201.486 158.235,202.187 157.400 C 203.000 156.432,203.700 155.200,203.438 155.200 C 203.333 155.200,203.115 155.425,202.953 155.700 M199.224 161.718 C 198.923 162.203,198.415 163.005,198.093 163.500 C 197.771 163.995,197.595 164.400,197.701 164.400 C 197.983 164.400,200.086 161.153,199.915 160.981 C 199.835 160.902,199.524 161.233,199.224 161.718 M254.637 163.400 C 254.276 163.950,254.137 164.400,254.327 164.400 C 254.516 164.400,254.877 163.950,255.127 163.400 C 255.378 162.850,255.517 162.400,255.437 162.400 C 255.357 162.400,254.997 162.850,254.637 163.400 M196.622 165.822 C 196.245 166.398,196.016 166.949,196.114 167.047 C 196.212 167.145,196.600 166.754,196.978 166.178 C 197.355 165.602,197.584 165.051,197.486 164.953 C 197.388 164.855,197.000 165.246,196.622 165.822 M251.231 168.899 C 249.857 171.154,248.987 172.730,249.299 172.400 C 250.138 171.513,254.067 165.134,253.886 164.953 C 253.801 164.867,252.606 166.643,251.231 168.899 M247.692 174.535 C 247.259 175.269,246.589 176.394,246.205 177.035 L 245.505 178.200 246.333 177.200 C 247.279 176.057,248.944 173.200,248.665 173.200 C 248.563 173.200,248.125 173.801,247.692 174.535 M190.214 176.235 C 189.841 176.804,189.605 177.338,189.689 177.422 C 189.773 177.507,190.158 177.041,190.544 176.388 C 191.406 174.928,191.148 174.809,190.214 176.235 M243.930 180.488 C 242.412 182.882,241.551 184.400,241.711 184.400 C 242.013 184.400,244.868 179.934,244.683 179.750 C 244.587 179.654,244.248 179.986,243.930 180.488 M187.025 181.418 C 186.658 181.977,185.837 183.319,185.200 184.400 C 184.563 185.481,183.729 186.868,183.347 187.482 C 182.966 188.097,182.851 188.420,183.093 188.200 C 183.458 187.868,184.370 186.433,187.864 180.700 C 188.359 179.889,187.604 180.534,187.025 181.418 M238.746 188.700 C 237.589 190.560,237.336 191.260,238.205 190.200 C 238.965 189.274,240.101 187.200,239.850 187.200 C 239.756 187.200,239.259 187.875,238.746 188.700 M181.908 189.700 C 181.033 191.049,180.248 192.656,180.687 192.200 C 181.248 191.617,182.898 188.800,182.679 188.800 C 182.576 188.800,182.229 189.205,181.908 189.700 M349.309 190.800 C 349.309 191.790,349.387 192.195,349.482 191.700 C 349.578 191.205,349.578 190.395,349.482 189.900 C 349.387 189.405,349.309 189.810,349.309 190.800 M235.052 194.695 C 234.512 195.726,235.041 198.000,235.821 198.000 C 235.931 198.000,235.763 197.503,235.449 196.895 C 234.954 195.937,234.954 195.645,235.452 194.695 C 235.767 194.093,235.936 193.600,235.826 193.600 C 235.716 193.600,235.367 194.093,235.052 194.695 M14.120 200.000 C 14.120 201.210,14.195 201.705,14.287 201.100 C 14.378 200.495,14.378 199.505,14.287 198.900 C 14.195 198.295,14.120 198.790,14.120 200.000 M182.836 203.400 C 182.830 203.620,183.347 204.880,183.985 206.200 C 184.623 207.520,185.147 208.420,185.149 208.200 C 185.154 207.667,182.850 202.886,182.836 203.400 M349.301 209.000 C 349.305 209.880,349.387 210.193,349.483 209.695 C 349.579 209.198,349.575 208.478,349.475 208.095 C 349.375 207.713,349.296 208.120,349.301 209.000 M185.621 209.690 C 185.609 209.849,186.140 211.159,186.800 212.600 C 187.460 214.041,188.000 215.385,188.000 215.586 C 188.000 215.788,188.184 216.066,188.408 216.205 C 188.633 216.344,188.507 215.684,188.129 214.738 C 187.243 212.525,185.648 209.314,185.621 209.690 M50.093 212.400 C 50.093 213.170,50.175 213.485,50.276 213.100 C 50.376 212.715,50.376 212.085,50.276 211.700 C 50.175 211.315,50.093 211.630,50.093 212.400 M243.440 213.202 C 244.039 214.303,244.593 215.140,244.671 215.063 C 244.843 214.890,242.808 211.200,242.541 211.200 C 242.436 211.200,242.840 212.101,243.440 213.202 M384.493 213.200 C 384.493 213.970,384.575 214.285,384.676 213.900 C 384.776 213.515,384.776 212.885,384.676 212.500 C 384.575 212.115,384.493 212.430,384.493 213.200 M249.207 224.300 C 251.797 229.396,252.830 231.186,252.136 229.378 C 251.613 228.015,247.103 219.374,246.720 219.000 C 246.494 218.780,247.613 221.165,249.207 224.300 M254.000 233.353 C 254.000 233.782,255.190 236.000,255.421 236.000 C 255.531 236.000,255.323 235.415,254.959 234.700 C 254.217 233.240,254.000 232.936,254.000 233.353 M200.607 243.879 C 201.207 245.314,201.600 245.962,201.600 245.516 C 201.600 245.084,200.385 242.400,200.189 242.400 C 200.079 242.400,200.267 243.066,200.607 243.879 M201.992 246.978 C 202.206 247.542,202.745 248.812,203.191 249.801 C 203.636 250.791,204.364 252.410,204.810 253.400 C 205.255 254.390,205.716 255.200,205.834 255.200 C 205.951 255.200,205.977 255.065,205.891 254.900 C 205.805 254.735,205.454 253.970,205.110 253.200 C 204.767 252.430,204.017 250.760,203.443 249.488 C 202.869 248.217,202.400 247.012,202.400 246.812 C 202.400 246.611,202.221 246.336,202.001 246.201 C 201.737 246.038,201.734 246.301,201.992 246.978 M262.285 249.500 C 262.428 249.885,262.846 250.742,263.212 251.405 C 263.579 252.067,264.915 254.644,266.182 257.129 C 267.448 259.615,268.576 261.558,268.688 261.446 C 268.800 261.334,268.532 260.648,268.093 259.921 C 267.654 259.194,266.173 256.395,264.802 253.700 C 262.519 249.210,261.621 247.712,262.285 249.500 M270.278 264.995 C 270.644 265.762,271.014 266.319,271.101 266.232 C 271.284 266.049,270.070 263.600,269.796 263.600 C 269.695 263.600,269.912 264.228,270.278 264.995 M215.600 277.747 C 215.600 277.854,216.230 279.305,217.000 280.972 C 217.770 282.639,218.400 284.172,218.400 284.378 C 218.400 284.584,218.579 284.864,218.799 284.999 C 219.262 285.285,218.901 284.244,217.401 280.965 C 216.850 279.761,216.400 278.612,216.400 278.412 C 216.400 278.211,216.220 277.936,216.000 277.800 C 215.780 277.664,215.600 277.640,215.600 277.747 M279.490 282.700 C 279.636 283.085,280.261 284.363,280.878 285.541 C 281.495 286.718,282.000 287.933,282.000 288.241 C 282.000 288.854,221.854 289.103,220.977 288.494 C 220.745 288.332,220.316 287.609,220.023 286.887 C 219.731 286.165,219.416 285.651,219.323 285.744 C 219.229 285.837,219.480 286.608,219.880 287.457 L 220.606 289.000 251.315 289.102 C 286.501 289.220,283.316 289.661,281.010 284.994 C 279.640 282.222,278.867 281.054,279.490 282.700 M87.600 299.725 C 87.600 299.794,88.185 300.379,88.900 301.025 L 90.200 302.200 89.025 300.900 C 87.930 299.688,87.600 299.416,87.600 299.725 M62.400 324.525 C 62.400 324.594,62.985 325.179,63.700 325.825 L 65.000 327.000 63.825 325.700 C 62.730 324.488,62.400 324.216,62.400 324.525 M330.581 330.900 L 329.000 332.600 330.700 331.019 C 332.281 329.548,332.584 329.200,332.281 329.200 C 332.216 329.200,331.451 329.965,330.581 330.900 M190.300 349.482 C 190.795 349.578,191.605 349.578,192.100 349.482 C 192.595 349.387,192.190 349.309,191.200 349.309 C 190.210 349.309,189.805 349.387,190.300 349.482 M207.500 349.482 C 207.995 349.578,208.805 349.578,209.300 349.482 C 209.795 349.387,209.390 349.309,208.400 349.309 C 207.410 349.309,207.005 349.387,207.500 349.482 M186.900 384.676 C 187.285 384.776,187.915 384.776,188.300 384.676 C 188.685 384.575,188.370 384.493,187.600 384.493 C 186.830 384.493,186.515 384.575,186.900 384.676 " stroke="none" fill="#b7667e" fill-rule="evenodd"></path></g></svg>